# xmcd
#
# Track frame offsets:
# 150
# 12571
# 26537
# 42632
# 55627
# 72810
# 91985
# 108862
# 121822
# 141081
# 155877
# 169170
# 188706
# 209842
# 223030
# 237540
# 252124
# 268142
# 279270
# 290713
#
# Disc length: 4098 seconds
#
#
# Revision: 0
# Processed by: cddbd v1.5.1PL2 Copyright (c) Steve Scherf et al.
# Submitted via: FreeRIP 2.944 
#
DISCID=34100014
DTITLE=Terceira dimensão - 20 mais
DYEAR=1900
DGENRE=
TTITLE0=99 e alguma coisa
TTITLE1=Casa, comida e bom saláriao
TTITLE2=Vou pra Santa Catarina
TTITLE3=Maria Tcha Tcha Tcha
TTITLE4=Casar não é comigo
TTITLE5=Faz tempo que te tenteio
TTITLE6=Cunhado
TTITLE7=Na hora do adeus
TTITLE8=Caramba
TTITLE9=Ôba
TTITLE10=Lençol manchado
TTITLE11=SAou seu fã
TTITLE12=Vai ter arrasta pé
TTITLE13=Oh coitado
TTITLE14=Genro bom
TTITLE15=Allan bique
TTITLE16=A carne é fraca
TTITLE17=Carro a alho
TTITLE18=Com meias nova
TTITLE19=Mulher boa
EXTD=
EXTT0=
EXTT1=
EXTT2=
EXTT3=
EXTT4=
EXTT5=
EXTT6=
EXTT7=
EXTT8=
EXTT9=
EXTT10=
EXTT11=
EXTT12=
EXTT13=
EXTT14=
EXTT15=
EXTT16=
EXTT17=
EXTT18=
EXTT19=
PLAYORDER=
